<?xml version="1.0" standalone="no"?>
<!DOCTYPE svg PUBLIC "-//W3C//DTD SVG 20010904//EN"
 "http://www.w3.org/TR/2001/REC-SVG-20010904/DTD/svg10.dtd">
<svg version="1.0" xmlns="http://www.w3.org/2000/svg"
 width="500.000000pt" height="500.000000pt" viewBox="0 0 500.000000 500.000000"
 preserveAspectRatio="xMidYMid meet">

<g transform="translate(0.000000,500.000000) scale(0.100000,-0.100000)"
fill="#000000" stroke="none">
<path d="M1162 3691 c17 -48 926 -1681 936 -1681 11 0 1553 407 1691 446 33 9
50 19 44 25 -5 5 -238 -41 -608 -121 -330 -72 -694 -151 -810 -176 -115 -24
-217 -47 -226 -50 -13 -3 -109 143 -419 638 -222 354 -444 707 -493 786 -49
78 -96 142 -104 142 -8 0 -13 -4 -11 -9z"/>
<path d="M2695 3393 c-4 -13 5 -28 32 -53 34 -32 49 -38 141 -54 57 -10 105
-16 107 -14 2 2 -16 24 -40 50 -41 43 -51 48 -135 67 -51 12 -93 21 -95 21 -1
0 -6 -8 -10 -17z"/>
<path d="M2664 3346 c-8 -22 -1 -28 26 -24 l22 3 -21 19 c-19 17 -21 17 -27 2z"/>
<path d="M2964 3319 c21 -24 42 -47 45 -51 6 -7 153 -38 181 -38 8 0 -4 19
-29 44 -39 39 -53 47 -120 61 -42 9 -85 19 -96 22 -15 4 -10 -5 19 -38z"/>
<path d="M2610 3260 c-18 -28 -31 -52 -29 -54 6 -5 252 -37 255 -33 2 2 -22
31 -54 64 -48 51 -64 62 -98 67 -41 6 -42 5 -74 -44z"/>
<path d="M2780 3283 c0 -3 23 -31 50 -62 l51 -58 105 -13 c58 -7 107 -10 109
-8 2 2 -17 25 -43 52 -47 50 -47 50 -159 71 -62 12 -113 20 -113 18z"/>
<path d="M3090 3186 c53 -53 60 -57 123 -67 99 -16 104 -11 53 42 -40 43 -48
47 -121 58 -43 7 -86 15 -94 18 -9 3 9 -20 39 -51z"/>
<path d="M2620 3120 c45 -52 57 -60 87 -60 26 0 34 -4 30 -14 -5 -11 14 -15
91 -20 53 -4 110 -9 125 -11 28 -5 28 -5 10 18 -10 13 -36 44 -58 69 l-41 46
-131 16 c-73 9 -140 16 -149 16 -11 0 0 -19 36 -60z"/>
<path d="M2517 3113 c-15 -25 -26 -47 -24 -50 3 -2 34 -3 70 -1 l65 3 -41 47
-42 47 -28 -46z"/>
<path d="M2917 3127 c4 -8 28 -37 53 -65 l45 -50 112 -9 111 -8 -45 50 c-26
27 -50 54 -53 58 -4 5 -52 15 -106 23 -124 17 -127 17 -117 1z"/>
<path d="M3215 3052 l60 -61 85 -6 85 -7 -53 55 c-53 54 -55 55 -125 61 -40 4
-81 9 -92 12 -12 4 3 -17 40 -54z"/>
<path d="M2720 3005 c0 -4 29 -42 64 -84 l64 -77 129 4 c70 2 131 4 136 5 4 1
-19 32 -50 68 l-58 67 -75 6 c-184 16 -210 17 -210 11z"/>
<path d="M3057 2966 c10 -12 37 -43 59 -69 l42 -47 107 0 108 0 -54 58 c-30
31 -61 60 -69 63 -8 3 -59 9 -113 12 l-97 5 17 -22z"/>
<path d="M2625 2913 l-58 -68 113 -3 c62 -1 115 -1 117 2 6 5 -98 136 -108
136 -3 0 -33 -30 -64 -67z"/>
<path d="M3339 2914 c30 -33 55 -60 55 -61 3 -6 166 -12 166 -6 0 5 -24 32
-52 60 l-53 51 -85 7 -85 7 54 -58z"/>
<path d="M3286 2820 l-99 -5 63 -73 63 -73 86 7 c47 4 92 10 99 13 8 5 -8 28
-50 72 l-63 64 -99 -5z"/>
<path d="M3430 2820 c0 -3 26 -34 58 -69 l57 -63 77 8 76 9 -51 58 -52 58 -83
2 c-45 1 -82 0 -82 -3z"/>
<path d="M2583 2813 c-45 -3 -55 -8 -74 -34 l-21 -30 36 -52 c20 -29 45 -63
55 -76 l19 -25 179 18 c98 11 181 21 185 23 4 2 -25 44 -64 93 l-72 90 -95 -2
c-53 -1 -119 -3 -148 -5z"/>
<path d="M2877 2808 c5 -7 38 -48 73 -92 l64 -78 45 6 c25 3 83 9 128 13 46 3
83 10 83 16 0 5 -27 40 -61 78 l-61 69 -140 0 c-111 0 -138 -3 -131 -12z"/>
<path d="M2393 2644 c-32 -36 -59 -69 -61 -73 -3 -8 196 14 205 22 4 5 -75
117 -83 117 -1 0 -29 -30 -61 -66z"/>
<path d="M3603 2673 c-18 -2 -33 -7 -33 -9 0 -3 28 -37 63 -75 37 -41 68 -67
77 -65 8 3 41 10 73 16 l57 11 -56 65 c-55 62 -58 64 -103 62 -25 0 -61 -3
-78 -5z"/>
<path d="M3435 2657 c-49 -5 -92 -11 -94 -13 -2 -2 27 -40 65 -84 62 -73 71
-81 96 -76 16 3 57 11 93 18 36 6 65 15 65 18 0 10 -110 133 -124 140 -6 3
-51 2 -101 -3z"/>
<path d="M3138 2627 c-54 -5 -98 -13 -98 -17 0 -13 141 -185 154 -188 13 -3
235 43 242 51 2 2 -26 41 -63 86 -76 92 -57 86 -235 68z"/>
<path d="M2850 2594 c-58 -7 -133 -16 -168 -21 l-63 -8 83 -113 c45 -63 86
-116 92 -118 16 -5 347 70 347 79 0 5 -32 51 -73 102 -51 67 -79 94 -93 94
-11 -1 -67 -8 -125 -15z"/>
<path d="M2412 2541 l-123 -16 -85 -98 -86 -97 42 -68 42 -68 257 58 c141 32
262 61 268 63 18 6 -154 245 -175 244 -10 -1 -72 -9 -140 -18z"/>
<path d="M1510 1655 l0 -175 40 0 40 0 0 175 0 175 -40 0 -40 0 0 -175z"/>
<path d="M855 1806 c-44 -19 -67 -50 -68 -90 -1 -46 23 -71 87 -91 92 -30 106
-37 106 -56 0 -40 -85 -47 -151 -14 -24 13 -27 12 -38 -12 -16 -35 -2 -49 65
-63 108 -23 198 20 198 93 0 50 -26 74 -108 99 -83 24 -90 29 -81 57 8 28 60
36 112 18 40 -14 41 -13 52 10 14 32 8 40 -37 53 -50 13 -101 12 -137 -4z"/>
<path d="M2320 1645 l0 -165 120 0 c113 0 120 1 120 20 0 19 -7 20 -100 20
l-100 0 0 55 0 55 85 0 c78 0 85 2 85 20 0 18 -7 20 -85 20 l-85 0 0 50 0 50
95 0 c88 0 95 1 95 20 0 19 -7 20 -115 20 l-115 0 0 -165z"/>
<path d="M1214 1726 c-95 -41 -107 -167 -23 -229 55 -40 168 -19 205 38 22 34
20 112 -3 144 -40 54 -116 74 -179 47z m106 -66 c30 -30 27 -83 -6 -109 -15
-12 -32 -21 -39 -21 -7 0 -24 9 -39 21 -50 39 -23 129 39 129 14 0 34 -9 45
-20z"/>
<path d="M1741 1727 c-40 -14 -46 -26 -28 -51 11 -15 17 -16 35 -7 31 17 77
13 95 -7 25 -28 21 -32 -28 -32 -63 0 -113 -22 -121 -54 -9 -37 3 -74 29 -87
29 -16 102 -16 121 1 11 8 16 9 16 1 0 -6 16 -11 35 -11 l35 0 0 90 c0 49 -5
100 -11 114 -23 49 -104 69 -178 43z m117 -159 c2 -9 -8 -24 -23 -34 -21 -13
-31 -15 -50 -6 -48 22 -19 64 40 59 19 -1 31 -8 33 -19z"/>
<path d="M2050 1608 l0 -128 35 0 35 0 0 75 c0 84 18 115 65 115 22 0 25 4 25
35 0 40 -13 44 -60 20 -25 -13 -29 -13 -34 0 -3 10 -17 15 -36 13 l-30 -2 0
-128z"/>
<path d="M2680 1605 c0 -118 1 -125 20 -125 18 0 20 7 20 79 0 98 20 131 79
131 59 0 71 -21 71 -123 0 -86 0 -87 25 -87 25 0 25 1 25 80 0 88 -16 142 -48
159 -30 16 -104 13 -130 -5 -20 -14 -22 -14 -22 0 0 9 -9 16 -20 16 -19 0 -20
-7 -20 -125z"/>
<path d="M3094 1720 c-41 -16 -64 -59 -64 -116 0 -45 5 -59 29 -86 25 -28 35
-32 92 -36 52 -3 69 0 87 14 14 12 19 24 14 32 -7 10 -16 9 -46 -3 -30 -13
-44 -14 -72 -5 -31 10 -64 43 -64 62 0 5 47 8 105 8 117 0 117 0 89 70 -10 25
-28 47 -45 55 -31 16 -92 19 -125 5z m119 -47 c9 -9 17 -24 17 -35 0 -16 -9
-18 -80 -18 -44 0 -80 3 -80 8 0 15 33 54 54 62 26 11 65 4 89 -17z"/>
<path d="M3390 1605 c0 -118 1 -125 20 -125 18 0 20 7 20 73 0 87 14 119 58
132 21 6 32 15 32 27 0 23 -37 24 -68 2 -20 -14 -22 -14 -22 0 0 9 -9 16 -20
16 -19 0 -20 -7 -20 -125z"/>
<path d="M3658 1714 c-52 -27 -74 -109 -44 -162 31 -56 115 -79 176 -47 29 15
30 15 30 -10 0 -63 -83 -95 -152 -59 -32 17 -55 7 -45 -18 6 -16 71 -38 111
-38 41 0 93 26 113 56 15 23 18 52 21 161 l2 133 -25 0 c-16 0 -25 -6 -25 -16
0 -14 -2 -14 -22 0 -28 20 -104 20 -140 0z m140 -47 c53 -48 10 -137 -66 -137
-64 0 -102 56 -78 115 23 55 95 66 144 22z"/>
<path d="M3960 1727 c0 -5 27 -68 88 -209 l21 -47 -20 -25 c-21 -27 -62 -35
-75 -15 -4 8 -10 6 -17 -6 -24 -44 74 -59 114 -18 14 14 90 176 146 311 4 10
-1 13 -18 10 -19 -2 -31 -20 -63 -95 -21 -51 -42 -93 -46 -93 -4 0 -25 42 -46
93 -31 72 -44 93 -62 95 -12 2 -22 1 -22 -1z"/>
</g>
</svg>
